P2
300 3
255
255 255 255 255 255 255 255 255 255 255 255 255 0 255 255 0 255 0 255 255 255 255 255 255 255 255 
0 0 0 255 255 0 255 0 255 0 255 255 0 255 255 255 255 255 0 255 255 255 255 0 255 255 
255 255 255 255 255 255 255 255 0 255 255 0 255 255 255 255 0 255 255 255 255 255 255 255 0 255 
255 255 255 0 255 255 0 255 0 0 255 0 255 255 255 255 255 0 0 255 255 255 0 255 0 255 
0 255 255 0 255 255 0 0 255 255 0 255 255 255 0 255 255 0 0 255 255 255 255 255 255 255 
255 255 0 0 255 255 255 255 255 255 255 0 255 0 255 0 0 255 255 255 0 0 0 0 0 255 
255 0 255 255 255 255 255 255 255 0 0 255 0 255 0 255 0 255 255 0 255 0 255 0 255 255 
255 255 0 0 255 0 255 255 255 0 0 255 255 255 0 255 255 0 255 255 0 0 255 0 0 0 
255 255 255 255 255 255 255 255 0 255 0 255 255 255 255 255 0 255 255 255 255 255 255 255 255 255 
255 255 255 255 255 255 255 0 255 255 0 0 0 0 0 255 255 255 255 255 255 255 0 255 255 0 
255 255 0 255 255 255 255 0 255 255 255 0 0 255 255 0 0 0 255 255 255 0 0 255 255 255 
255 0 0 255 0 255 0 255 255 0 255 0 255 255 
0 0 0 0 0 0 0 0 0 0 0 0 255 255 255 255 0 255 0 255 0 0 0 0 0 255 
255 255 255 255 255 255 0 255 0 255 0 0 255 255 0 255 255 255 255 0 255 0 255 255 255 255 
0 0 255 255 255 255 255 255 255 255 0 255 0 0 255 0 255 255 255 255 0 255 255 255 255 0 
255 0 255 255 255 255 255 0 255 255 255 255 0 0 255 255 0 255 255 0 0 255 255 0 255 255 
255 0 0 255 255 0 255 255 0 255 255 255 255 255 255 255 255 255 255 0 0 0 255 0 255 0 
0 0 255 255 255 0 255 0 0 255 255 255 0 255 255 255 255 255 0 0 255 255 255 255 255 255 
0 255 0 255 255 0 0 255 0 255 255 0 255 255 255 0 255 0 255 255 0 255 255 255 0 0 
255 0 255 255 0 255 0 255 0 255 255 255 255 255 255 0 0 255 0 0 255 255 0 255 255 255 
255 0 0 255 0 255 0 255 255 255 255 255 255 0 255 0 255 255 255 0 255 255 255 0 255 255 
0 255 0 0 255 0 0 255 255 0 255 255 255 255 255 0 0 255 255 255 0 0 255 255 0 255 
255 0 255 255 255 0 0 255 0 255 0 255 255 255 0 255 255 255 0 0 255 255 255 0 255 0 
0 255 255 0 255 0 255 255 0 255 0 255 0 255 
255 255 255 255 255 255 255 255 255 255 255 255 255 0 0 255 255 255 255 0 255 255 255 255 255 0 
255 255 255 0 0 255 255 255 255 255 255 255 255 0 255 0 0 0 255 255 0 255 0 255 0 0 
255 255 0 0 0 0 0 0 255 0 255 255 255 255 0 255 255 0 0 0 255 0 0 0 255 255 
0 255 0 255 0 0 255 255 255 255 0 255 255 255 0 0 255 255 255 255 255 0 255 255 255 0 
255 255 255 255 0 255 255 255 255 0 255 0 0 0 255 0 0 255 255 255 255 255 0 255 0 255 
255 255 255 255 0 255 0 255 255 0 0 255 255 255 0 255 255 0 255 255 255 255 255 255 255 0 
255 255 255 0 0 255 255 0 255 255 255 255 255 0 255 255 255 255 0 255 255 255 0 255 255 255 
0 255 255 255 255 255 255 0 255 255 255 0 0 0 255 255 255 255 255 255 255 255 255 255 255 255 
0 255 255 0 255 0 255 0 255 0 255 0 0 255 0 255 255 0 0 255 0 0 0 255 0 0 
255 0 255 255 0 255 255 255 0 255 255 255 255 255 255 255 255 0 0 0 255 255 255 0 255 255 
0 255 255 0 0 255 255 255 255 0 255 255 255 0 255 255 255 255 255 255 0 255 255 255 0 255 
255 255 255 255 255 255 255 0 255 255 255 255 255 0 
